PathFileType	4	(X/Y/Z)	D:\telocate\uwb06-Unnamed.trc
DataRate	CameraRate	NumFrames	NumMarkers	Units	OrigDataRate	OrigDataStartFrame	OrigNumFrames
100.00	100.00	     231	0	mm	100.00	12385	     16512
Frame#	Time	
		

12385	123.840	3846.23315	57.29352	1099.69055	
12386	123.850	3844.54663	67.58696	1099.70959	
12387	123.860	3843.33447	78.78986	1100.53357	
12388	123.870	3840.74805	89.77063	1100.38684	
12389	123.880	3838.33423	100.89576	1100.67554	
12390	123.890	3836.26123	111.36567	1100.08020	
12391	123.900	3834.19531	122.08232	1100.93494	
12392	123.910	3831.91357	133.19096	1101.45313	
12393	123.920	3829.52539	144.39735	1100.96143	
12394	123.930	3827.55640	155.82904	1101.34033	
12395	123.940	3826.05591	166.47867	1102.44177	
12396	123.950	3824.50879	177.81084	1101.94214	
12397	123.960	3822.99268	188.32466	1102.01379	
12398	123.970	3823.06934	199.27110	1102.19604	
12399	123.980	3821.02612	209.98831	1102.54797	
12400	123.990	3819.81714	220.58009	1102.75354	
12401	124.000	3819.39282	232.14508	1104.15063	
12402	124.010	3819.36230	243.69957	1104.67273	
12403	124.020	3818.61377	254.28961	1104.54980	
12404	124.030	3817.97729	265.54590	1104.72705	
12405	124.040	3815.12451	276.02179	1106.13745	
12406	124.050	3814.63525	287.14157	1105.93884	
12407	124.060	3814.32471	298.45178	1106.33191	
12408	124.070	3814.10596	309.12265	1107.17395	
12409	124.080	3813.63281	320.11536	1107.32495	
12410	124.090	3812.75317	332.08432	1107.44971	
12411	124.100	3812.09448	344.04782	1107.71753	
12412	124.110	3811.51270	356.11346	1107.13013	
12413	124.120	3810.84058	367.31326	1106.86462	
12414	124.130	3810.03345	378.76865	1107.19165	
12415	124.140	3809.91455	390.41718	1106.91968	
12416	124.150	3809.74585	401.69376	1106.74683	
12417	124.160	3809.72192	413.44104	1107.81226	
12418	124.170	3809.28638	424.82471	1107.56348	
12419	124.180	3808.39014	436.50958	1107.05310	
12420	124.190	3807.92847	448.31906	1106.65039	
12421	124.200	3808.11206	460.17404	1106.02795	
12422	124.210	3806.45117	471.66220	1106.43506	
12423	124.220	3806.24927	483.40747	1105.42188	
12424	124.230	3806.35303	494.38593	1104.58459	
12425	124.240	3805.74609	505.21774	1104.08350	
12426	124.250	3804.83838	517.02087	1103.14172	
12427	124.260	3804.22803	528.71771	1102.88501	
12428	124.270	3803.10181	539.61133	1101.69482	
12429	124.280	3802.15308	550.18457	1101.17798	
12430	124.290	3801.70679	560.44556	1100.26672	
12431	124.300	3800.99390	571.02856	1099.46240	
12432	124.310	3800.33911	581.90356	1099.00769	
12433	124.320	3798.86401	591.63013	1098.07593	
12434	124.330	3797.05615	601.84058	1097.84192	
12435	124.340	3795.93970	610.65912	1097.43872	
12436	124.350	3794.86963	620.47192	1097.22766	
12437	124.360	3793.87354	630.68317	1096.97009	
12438	124.370	3794.09448	639.77911	1094.85217	
12439	124.380	3791.92432	650.51007	1094.59900	
12440	124.390	3792.01978	659.24585	1095.00659	
12441	124.400	3790.81396	667.73199	1095.19409	
12442	124.410	3789.32251	675.94525	1095.78345	
12443	124.420	3789.83545	684.21545	1096.07397	
12444	124.430	3788.49072	692.90082	1097.05029	
12445	124.440	3787.93042	699.96106	1097.41443	
12446	124.450	3787.55737	708.00916	1098.01965	
12447	124.460	3785.98462	717.46051	1098.42224	
12448	124.470	3785.28247	726.70325	1099.21716	
12449	124.480	3784.22119	735.22894	1098.09277	
12450	124.490	3782.28369	743.16888	1099.58533	
12451	124.500	3780.81006	751.20776	1100.12329	
12452	124.510	3779.06494	758.31305	1101.58972	
12453	124.520	3777.49170	765.26819	1100.74060	
12454	124.530	3774.34985	774.55798	1101.91943	
12455	124.540	3772.64673	782.61377	1102.42151	
12456	124.550	3770.40088	790.29828	1101.97522	
12457	124.560	3767.36987	798.24121	1103.31812	
12458	124.570	3764.94922	806.01038	1102.60107	
12459	124.580	3761.96484	814.35156	1104.55530	
12460	124.590	3758.81396	822.10187	1104.27661	
12461	124.600	3754.80713	830.55066	1104.59839	
12462	124.610	3752.92920	838.02448	1104.39429	
12463	124.620	3749.93115	846.05225	1104.40979	
12464	124.630	3745.99854	854.23798	1104.53479	
12465	124.640	3742.24609	862.57990	1105.83142	
12466	124.650	3738.49268	870.54211	1106.00989	
12467	124.660	3736.57520	878.29034	1105.15002	
12468	124.670	3731.74194	886.74451	1106.01160	
12469	124.680	3732.66260	895.57153	1102.06519	
12470	124.690	3728.72021	903.53271	1102.62402	
12471	124.700	3723.19971	911.94525	1102.65869	
12472	124.710	3720.17993	919.54382	1101.78027	
12473	124.720	3710.64233	929.32153	1103.37439	
12474	124.730	3707.41992	937.07336	1102.02454	
12475	124.740	3702.93628	947.01819	1101.66101	
12476	124.750	3698.03613	955.62836	1101.16150	
12477	124.760	3692.95483	964.46008	1100.42554	
12478	124.770	3687.98267	973.02386	1099.61487	
12479	124.780	3682.92651	982.18555	1098.54553	
12480	124.790	3678.01782	990.93561	1096.00696	
12481	124.800	3672.65503	999.61829	1095.23669	
12482	124.810	3667.33594	1009.32941	1093.66028	
12483	124.820	3662.00684	1017.09979	1093.22876	
12484	124.830	3656.98730	1026.56580	1092.05762	
12485	124.840	3650.94141	1035.40405	1091.24976	
12486	124.850	3644.94775	1044.21777	1091.81433	
12487	124.860	3638.95044	1052.59973	1090.95288	
12488	124.870	3632.99146	1060.46570	1090.74353	
12489	124.880	3624.23120	1068.80127	1092.01746	
12490	124.890	3621.40503	1076.98511	1090.14758	
12491	124.900	3616.52930	1083.63354	1088.90906	
12492	124.910	3603.82007	1090.95691	1093.01440	
12493	124.920	3598.03418	1098.67126	1091.65649	
12494	124.930	3592.25024	1106.25513	1092.50403	
12495	124.940	3585.54688	1114.02954	1092.85486	
12496	124.950	3579.39282	1120.98816	1093.02515	
12497	124.960	3572.24121	1128.40601	1092.71985	
12498	124.970	3565.89209	1135.42029	1093.50208	
12499	124.980	3559.12622	1142.18835	1093.74146	
12500	124.990	3552.81812	1148.98401	1095.03894	
12501	125.000	3545.79346	1155.67712	1096.03711	
12502	125.010	3539.22339	1162.19629	1096.73376	
12503	125.020	3532.01367	1169.09436	1098.01465	
12504	125.030	3525.78735	1175.42786	1097.81604	
12505	125.040	3518.98022	1181.89221	1098.46497	
12506	125.050	3511.86328	1188.78711	1099.53625	
12507	125.060	3504.24683	1195.75562	1099.91943	
12508	125.070	3496.78662	1202.72839	1100.34570	
12509	125.080	3490.25830	1208.78210	1099.90186	
12510	125.090	3483.32666	1215.57690	1101.69666	
12511	125.100	3475.70166	1222.21655	1101.35596	
12512	125.110	3468.71631	1228.84094	1101.79700	
12513	125.120	3462.19580	1235.65247	1102.16272	
12514	125.130	3455.22485	1242.03577	1102.83472	
12515	125.140	3448.10425	1247.67358	1103.67358	
12516	125.150	3441.48218	1253.91174	1104.49866	
12517	125.160	3434.97144	1259.73926	1105.36755	
12518	125.170	3427.28345	1266.40796	1104.21692	
12519	125.180	3419.72510	1272.48389	1106.10413	
12520	125.190	3412.28784	1278.87756	1106.15051	
12521	125.200	3405.28027	1284.80786	1106.09094	
12522	125.210	3399.14600	1291.13379	1106.08765	
12523	125.220	3391.80444	1297.32959	1106.54138	
12524	125.230	3383.77368	1303.51111	1106.41235	
12525	125.240	3376.78760	1309.98425	1106.71973	
12526	125.250	3369.09473	1316.19702	1106.99207	
12527	125.260	3361.27808	1322.50854	1107.01392	
12528	125.270	3354.00684	1328.53528	1106.81592	
12529	125.280	3346.48389	1334.79053	1107.05798	
12530	125.290	3338.74878	1341.14063	1107.18640	
12531	125.300	3331.74585	1347.33069	1106.97803	
12532	125.310	3323.69482	1353.83484	1106.22986	
12533	125.320	3316.28052	1360.30261	1107.28723	
12534	125.330	3308.94775	1366.59973	1107.03467	
12535	125.340	3301.39380	1372.45203	1106.77124	
12536	125.350	3293.98071	1379.04834	1106.68311	
12537	125.360	3287.09668	1385.46838	1105.89270	
12538	125.370	3280.49951	1391.90247	1105.89856	
12539	125.380	3272.57568	1397.59436	1106.78015	
12540	125.390	3264.90186	1403.44189	1106.97986	
12541	125.400	3257.20215	1409.69531	1106.73108	
12542	125.410	3250.39209	1416.05286	1106.73181	
12543	125.420	3242.40796	1422.05859	1105.69983	
12544	125.430	3235.24512	1428.14307	1105.80493	
12545	125.440	3228.05347	1433.87280	1105.46289	
12546	125.450	3221.39648	1439.61938	1105.63184	
12547	125.460	3213.87305	1444.99451	1104.64917	
12548	125.470	3206.81323	1450.74377	1104.18127	
12549	125.480	3199.76074	1456.74768	1103.34460	
12550	125.490	3192.00635	1461.59912	1103.09607	
12551	125.500	3184.67261	1467.32825	1102.22522	
12552	125.510	3176.70630	1472.77588	1101.78186	
12553	125.520	3169.52173	1477.39490	1101.72595	
12554	125.530	3163.27319	1482.42102	1101.82483	
12555	125.540	3156.28369	1487.10876	1101.14844	
12556	125.550	3150.42188	1492.00745	1101.49377	
12557	125.560	3143.74316	1496.96460	1102.80127	
12558	125.570	3137.30981	1501.87549	1102.81067	
12559	125.580	3131.52686	1506.36255	1103.80322	
12560	125.590	3124.27075	1511.55750	1104.85706	
12561	125.600	3117.55884	1516.44519	1104.94141	
12562	125.610	3110.11475	1521.00159	1105.03577	
12563	125.620	3104.53027	1525.13062	1105.92676	
12564	125.630	3097.41235	1529.71265	1106.28540	
12565	125.640	3089.33472	1534.05481	1106.86267	
12566	125.650	3082.61401	1538.10291	1107.36731	
12567	125.660	3076.29126	1542.54260	1107.53333	
12568	125.670	3070.13477	1546.40295	1107.91992	
12569	125.680	3062.28076	1549.86499	1109.23633	
12570	125.690	3055.84229	1553.28198	1109.92212	
12571	125.700	3048.43774	1556.58289	1110.93933	
12572	125.710	3041.77808	1560.32678	1112.04700	
12573	125.720	3033.83569	1563.50842	1112.58606	
12574	125.730	3027.14453	1566.81970	1112.59021	
12575	125.740	3019.15381	1570.13367	1113.38110	
12576	125.750	3012.52466	1574.17505	1114.88818	
12577	125.760	3004.62354	1577.19958	1115.83984	
12578	125.770	2998.43359	1580.73816	1116.38855	
12579	125.780	2989.60400	1584.39575	1116.23975	
12580	125.790	2982.58154	1588.24109	1116.99573	
12581	125.800	2974.18433	1591.51599	1117.29810	
12582	125.810	2968.13818	1594.57556	1117.39209	
12583	125.820	2959.84497	1598.14990	1117.31152	
12584	125.830	2951.12622	1601.70386	1117.06726	
12585	125.840	2942.22974	1605.31470	1116.77625	
12586	125.850	2934.16797	1609.27625	1116.86096	
12587	125.860	2924.83374	1612.77502	1116.53821	
12588	125.870	2916.66138	1616.35657	1115.32568	
12589	125.880	2908.06201	1619.74890	1115.53979	
12590	125.890	2898.47437	1623.54309	1115.04651	
12591	125.900	2889.91089	1627.22107	1114.84888	
12592	125.910	2881.24341	1630.39197	1115.20605	
12593	125.920	2871.99756	1633.82800	1114.80444	
12594	125.930	2862.00610	1637.27393	1113.81006	
12595	125.940	2853.83276	1640.16821	1113.85571	
12596	125.950	2843.47559	1643.54736	1112.94446	
12597	125.960	2834.01758	1646.67004	1112.19666	
12598	125.970	2823.85522	1649.34082	1111.40137	
12599	125.980	2814.16699	1652.06213	1111.19092	
12600	125.990	2803.95801	1654.93396	1109.71106	
12601	126.000	2794.74512	1657.35400	1109.77563	
12602	126.010	2784.55737	1659.38110	1109.48914	
12603	126.020	2775.51392	1661.78833	1109.35547	
12604	126.030	2765.86523	1663.72339	1108.60205	
12605	126.040	2756.11499	1665.66931	1108.72632	
12606	126.050	2746.73926	1668.24719	1108.01538	
12607	126.060	2737.08032	1670.04919	1108.64490	
12608	126.070	2727.84058	1671.72888	1107.92126	
12609	126.080	2719.84131	1673.55493	1109.38818	
12610	126.090	2709.60986	1675.88379	1110.09912	
12611	126.100	2700.59814	1677.54211	1110.34814	
12612	126.110	2691.86084	1679.66736	1111.27307	
12613	126.120	2683.64941	1680.82349	1111.66907	
12614	126.130	2674.12524	1682.48816	1113.00562	
12615	126.140	2663.69653	1684.06128	1113.36853	
